inDegrees=yes
name=greeting_output.mot
DataType=double
version=3
OpenSimVersion=4.5
endheader
time	pelvis_tilt	pelvis_list	pelvis_rotation	pelvis_tx	pelvis_ty	pelvis_tz	hip_flexion_r	hip_adduction_r	hip_rotation_r	knee_angle_r	knee_angle_r_beta	ankle_angle_r	subtalar_angle_r	mtp_angle_r	hip_flexion_l	hip_adduction_l	hip_rotation_l	knee_angle_l	knee_angle_l_beta	ankle_angle_l	subtalar_angle_l	mtp_angle_l	lumbar_extension	lumbar_bending	lumbar_rotation	arm_flex_r	arm_add_r	arm_rot_r	elbow_flex_r	pro_sup_r	wrist_flex_r	wrist_dev_r	arm_flex_l	arm_add_l	arm_rot_l	elbow_flex_l	pro_sup_l	wrist_flex_l	wrist_dev_l
0	0.003899353636397753	-0.000579563777240635	166.1371201624323	0	0.93	0	0.3815785949187153	-0.01459010301095971	-0.113472567940926	0.7292096552988853	0.01272710942229846	-0.5734918907314572	0	0	0.382828980005635	-0.01438460551693451	-0.1117562983438421	0.7275999666336247	0.01269901505515763	-0.5734918907314597	0	0	0	0	0	0	0	-0.001754706379743009	0	0	0	0	0	0	0.0003837136952052322	0	0	0	0
0.0192307692307692	0.02839856549389994	-0.002127981708197624	166.1123619243556	0	0.93	0	0.4219747477781616	-0.2840918846176727	0.09788321048700112	0.8911734778235615	0.01555391139446982	-0.5893140153574169	0	0	0.2063128930435099	0.0559797211468217	0.6177678156120717	0.4933092641492177	0.008609870889994273	-0.5893140153592361	0	0	0	0	0	0	0	-0.553069441846284	0	2.622579537855832e-39	0	0	0	0	-0.07219910151715235	0	0	0	0
0.0384615384615385	0.02475883649637985	0.02281146223855997	166.1570374242701	0	0.93	0	0.4571802121205958	0.004439771532991448	1.067561128479915	0.6962877458154488	0.01215251370576895	-0.6283453589885797	-5.340523009208114e-17	1.65252087924716e-22	-0.5093413203998941	0.1145070559558571	3.872406625453001	0.171571256452039	0.002994483326871645	-0.6283453589853328	5.498039962795818e-20	5.218241969799399e-22	3.113766807704469e-24	-1.267093459754575e-19	1.372100140819265e-24	9.259845895425728e-18	-9.750756034479682e-17	0.2050995270992438	1.819562629450898e-15	9.015735959148874e-15	2.352285169644014e-18	-7.426200810264533e-20	-1.886228748695783e-14	1.436128557910656e-14	0.3711001877916973	2.225006573450159e-15	0	-1.234804108988827e-17	-1.842908856533726e-19
0.0576923076923077	0.06843010888779887	0.001013497476261599	165.9856251240658	0	0.93	0	0.4496698279015384	0.01914043032592034	0.07771597745976061	0.7379944388461325	0.01288043281927295	-0.6426277467076071	0	0	-0.4811970810389464	0.2182322043411593	3.924967998556354	0.1566194034202171	0.002733524262192056	-0.6426277467043712	0	0	0	0	0	0	0	-0.3821391552710209	3.528302688455958e-46	0	0	0	0	0	-0.2336181844797714	3.136269056405296e-46	5.272852351081404e-45	0	0
0.0769230769230769	0.06014915582631714	0.03882885314736529	166.0595164390789	0	0.93	0	0.5052409185914022	0.1078512427406881	-0.5441321282252305	0.8899120467716521	0.0155318952693271	-0.6679434463473101	0	0	-0.5034613629340832	0.1373281310110145	2.176611107874889	0.2221692451421825	0.003877584824401502	-0.6679434463440931	0	0	0	0	0	0	0	-0.4832465765958355	0	1.464815914874439e-38	0	0	0	0	-0.2232585184272717	0	0	0	0
0.0961538461538462	0.09262389667055138	0.1374544041574263	166.07410502426	0	0.93	0	0.6483063436765518	0.1824131488745645	-0.2188645540934693	0.881886544783743	0.01539182383551274	-0.6768047227918181	0	0	-0.4616189532276581	0.1336531335897855	1.725113151896239	0.2343289467226746	0.004089811653041048	-0.6768047227886019	0	0	0	0	0	0	0	-0.1457829356835692	1.032687927658477e-47	0	0	0	0	0	-0.0979775453505891	0	0	0	0
0.1153846153846154	0.1108089568090174	0.1826058500163102	166.0846964498081	0	0.93	0	0.5550321135039522	0.2506826678352289	0.6629289860858533	0.6400475432209058	0.01117093699850552	-0.7059141141715229	0	0	0.385989930714852	-0.2382287533675289	0.3627276159340627	0.7216117879861276	0.01259450162156119	-0.7059141141683295	0	0	0	0	0	0	0	0.04025094714125362	0	7.450730429982842e-39	0	0	0	0	0.7415005439109505	0	0	0	0
0.1346153846153846	0.1164251648719847	0.139621266977027	165.6209168671869	0	0.93	0	0.5773238838261958	0.2572396833761793	0.3814601338075311	0.8408427868751017	0.01467547512261549	-0.7314416590875287	0	0	-0.1098752228869663	0.1187363682312922	2.840698939124714	0.1774308623857752	0.003096752743284739	-0.7314416590843545	0	0	0	0	0	0	0	0.1503310925746186	1.086299663545142e-38	0	0	0	0	0	-0.1841757260485509	1.926671556298644e-40	0	0	0
0.1538461538461539	0.1110266769829958	0.1328626450628617	165.9316722251697	0	0.93	0	0.4872387129725786	0.2019407307914298	-0.3622155502523633	0.8015457604032182	0.01398961262443775	-0.7492391290867465	0	0	-0.2377706542830238	0.1452146871169885	1.563741029223646	0.3157888112604257	0.005511554497453373	-0.749239129083586	0	0	0	0	0	0	0	-0.1803058405558114	6.89979192409165e-45	1.764151344227979e-46	0	0	0	0	0.01458444473928178	0	1.207463586716039e-44	0	0
0.1730769230769231	0.06447143475976089	0.1147387103390197	165.7920929936132	0	0.93	0	0.5449975968140656	0.1023847058046721	0.2659337656235738	0.8893659894846473	0.01552236477176436	-0.7754993341425759	0	0	-0.3228627439072281	0.06159390988154557	3.03002506337504	0.1828843379821958	0.003191933848119439	-0.7754993341416433	0	0	0	0	0	0	0	0.1631304546328078	8.15429954665377e-45	0	0	0	0	0	-0.7252876523653231	0	1.626939573010247e-45	0	0
0.1923076923076923	0.08247289427695603	0.1783461749517944	165.8574031416595	0	0.93	0	0.4794642309913809	0.4046093601367312	0.5692498102010839	0.834428836715768	0.0145635305742763	-0.7975861034809953	0	0	-0.5640028135188297	0.1987329042700514	4.861081119606636	0.1217357084606374	0.00212468892988604	-0.7975861034800676	0	0	0	0	0	0	0	0.1272228134065112	9.77657705571167e-40	0	0	0	0	0	-0.04085287537766039	1.066190319627908e-38	0	0	0
0.2115384615384615	0.08132055044148852	0.1766318197828784	165.9922062171198	0	0.93	0	0.5436185823075866	0.4459204794739647	0.2695132294884958	0.7540473528171205	0.01316060902260609	-0.8015624042717168	0	0	-0.7338647973974377	0.1622754158753908	4.535682046011488	0.1262671699076156	0.002203777852062996	-0.8015624042707578	0	0	0	0	0	0	0	0.1144453883377029	0	0	0	0	0	0	-0.03926286802999002	0	0	0	0
0.2307692307692307	0.05580214395955958	0.1956312863784362	165.8410146708851	0	0.93	0	0.5541919283621077	0.3533704912955535	0.4747919658996784	0.8392638262512504	0.01464791706096994	-0.8535968396112605	0	0	-0.03603271621650313	-0.05633412007782337	0.08825864329899259	0.4101596742686493	0.007158636774895396	-0.8535968396103132	0	0	0	0	0	0	0	0.4254342331785819	1.939725539067674e-38	5.930463526780905e-39	0	0	0	0	0.110096978511687	0	0	0	0
0.2499999999999999	0.09590515563948582	0.1509409377273803	165.8758917402948	0	0.93	0	0.5859133250167049	0.2913469343508202	0.5288973271032352	0.7775068534279751	0.01357005454913913	-0.8795431065045739	0	0	-0.3921604199810943	-0.01945382493949603	3.533454876513292	0.1598691119829021	0.002790242376341162	-0.8795431065036328	0	0	0	0	0	0	0	-0.0619331751597199	4.937534585863633e-46	0	0	0	0	0	0.0250120308555356	0	7.84067264101324e-46	0	0
0.2692307692307692	0.05054680437167007	0.1371596437904732	166.1305609899172	0	0.93	0	0.5708994854205325	0.2756059637179661	0.6513358383495244	0.6902106090680269	0.0120464476604325	-0.9044031425601037	0	0	-0.4747527255499978	-0.1426250311430083	5.242555485395914	0.1287570988089647	0.002247235309532104	-0.9044031425586854	0	0	0	0	0	0	0	-0.000537682757115236	0	0	0	0	0	0	0.5645071842951322	0	1.254507622562118e-45	0	0
0.2884615384615384	0.07194422148079532	0.1080164750369213	166.3131135434492	0	0.93	0	0.572288609707202	0.3106203269416503	-1.457229626374929	1.113970617658508	0.01944245504861586	-0.9601366387165147	0	0	0.2820702698797787	-0.2583685840565937	0.8105997887647385	0.4196403913270716	0.007324106503014857	-0.9601366387151143	0	0	0	0	0	0	0	-0.2567433405605318	1.086999852930453e-38	3.281818598909481e-38	0	0	0	0	0.593394219780621	7.147739710406753e-39	1.656396405793263e-38	0	0
0.3076923076923076	0.04677700141558277	0.03377399996845832	166.2033606474498	0	0.93	0	0.7165930156062404	0.1361390517169712	1.079108612899382	0.8050782403908117	0.01405126603098206	-0.9898578583655022	0	0	-0.1068222163140385	-0.09073542378160832	2.403032191316754	0.2262680578648232	0.003949122601834215	-0.9898578583641126	0	0	0	0	0	0	0	0.3385453382368201	0	2.144423308945834e-38	0	0	0	0	-0.1663923223329858	0	1.703621269559779e-39	0	0
0.3269230769230768	0.02688975785956348	0.06894090117413479	166.1148421482657	0	0.93	0	0.5416652414997362	0.2234244840814374	-1.219454654456402	1.106441930126112	0.01931105466282169	-1.020996088355109	9.20554512479844e-17	-6.20934680228226e-17	-0.3877717120026463	-0.08241854337809978	3.425111843290673	0.1726270952028559	0.003012911189443544	-1.020996088358807	2.437100017241931e-16	-5.417951344386036e-16	1.058966918752326e-24	4.379507332181288e-20	5.30742033290215e-27	-1.723012827438745e-18	-3.444185861578794e-18	0.5919113194534192	0	3.808548992618591e-15	-3.804983735293152e-18	-1.121873222960967e-20	-4.235154344592651e-15	-1.299508303230602e-14	-0.1473834861182859	0	0	-8.561223281842043e-20	5.066711045006247e-21
0.346153846153846	0.1080656121560211	0.07080318277155064	165.9630829466674	0	0.93	0	0.7940545502740934	0.2440420993646479	0.2577043552007317	1.04391343061775	0.01821972647006912	-1.044959642796369	0	0	-0.5304596743766884	-0.05034149867076224	4.590245947030696	0.1312698551815082	0.002291091181533457	-1.044959642800045	0	0	0	0	0	0	0	0.09034393946743961	7.884730259042966e-39	1.636985645889622e-40	0	0	0	0	0.3568207891278111	1.777716150894936e-38	6.603724995758362e-39	0	0
0.3653846153846153	0.08070804554971241	0.03020834551349082	166.0005903877631	0	0.93	0	0.6498775951285425	0.1418157239323791	-0.2108169063694671	0.8961809469759104	0.01564130821837036	-1.065056735715168	0	0	-0.6023734806278381	0.06424157812550874	5.740243240570739	0.1085577808379694	0.001894690704280974	-1.065056735718825	0	0	0	0	0	0	0	-0.05613223766950078	0	0	0	0	0	0	-0.7562682987703611	0	2.052062362246267e-38	0	0
0.3846153846153845	0.1042316835131672	0.07068759624570845	165.9848474863731	0	0.93	0	0.6778135567553292	0.1563383553360353	-0.3238774009799258	1.045199612093843	0.01824217457160511	-1.078718183993843	0	0	-0.5556906556916861	0.04369626567424049	6.107161609849198	0.09672866947414413	0.001688233763397147	-1.078718184833844	0	0	0	0	0	0	0	-0.2554307107172913	0	0	0	0	0	0	0.1847568065670811	1.415599175816329e-45	2.352201792303972e-46	0	0
